<svg xmlns="http://www.w3.org/2000/svg" xmlns:xlink="http://www.w3.org/1999/xlink" width="500" zoomAndPan="magnify" viewBox="0 0 375 374.999991" height="500" preserveAspectRatio="xMidYMid meet" version="1.0"><defs><clipPath id="4201b7decc"><path d="M 203 0 L 349.546875 0 L 349.546875 375 L 203 375 Z M 203 0 " clip-rule="nonzero"/></clipPath><clipPath id="6123388a92"><path d="M 25.546875 53 L 210 53 L 210 374 L 25.546875 374 Z M 25.546875 53 " clip-rule="nonzero"/></clipPath></defs><g clip-path="url(#4201b7decc)"><path fill="#70af43" d="M 349.546875 215.742188 C 349.546875 283.996094 307.132812 342.535156 247.175781 366.332031 C 244.621094 367.402344 241.984375 368.308594 239.351562 369.214844 C 232.351562 371.601562 225.101562 373.496094 217.691406 374.894531 L 217.527344 374.894531 L 217.527344 40.039062 L 239.433594 40.039062 L 239.433594 339.078125 C 242.070312 337.925781 244.703125 336.773438 247.257812 335.457031 C 291.15625 313.472656 321.460938 268.023438 321.460938 215.742188 C 321.460938 163.375 291.238281 117.925781 247.257812 96.027344 L 247.257812 65.230469 C 307.132812 89.027344 349.546875 147.484375 349.546875 215.742188 Z M 250.964844 45.058594 C 242.644531 29.828125 238.199219 15.089844 229.878906 0.0234375 C 220.902344 14.761719 212.089844 29.167969 203.195312 43.824219 C 208.714844 43.988281 213.820312 44.15625 219.007812 44.320312 L 239.269531 44.648438 C 239.351562 44.648438 239.515625 44.648438 239.597656 44.648438 C 244.539062 44.894531 245.773438 44.894531 250.964844 45.058594 Z M 250.964844 45.058594 " fill-opacity="1" fill-rule="nonzero"/></g><path fill="#219dc5" d="M 176.59375 115.210938 L 198.5 115.210938 L 198.5 374.976562 L 176.59375 374.976562 Z M 211.429688 137.6875 C 203.113281 122.539062 198.582031 107.71875 190.347656 92.648438 C 181.371094 107.386719 172.558594 121.796875 163.664062 136.453125 C 169.179688 136.617188 174.285156 136.78125 179.476562 136.945312 L 199.734375 137.277344 C 199.816406 137.277344 199.984375 137.277344 200.066406 137.277344 C 204.925781 137.523438 206.160156 137.523438 211.429688 137.6875 Z M 211.429688 137.6875 " fill-opacity="1" fill-rule="nonzero"/><g clip-path="url(#6123388a92)"><path fill="#ea7932" d="M 187.546875 53.789062 C 195.042969 53.789062 202.453125 54.28125 209.703125 55.269531 L 209.703125 83.757812 C 202.535156 82.523438 195.125 81.945312 187.546875 81.945312 C 113.753906 81.945312 53.714844 141.96875 53.714844 215.742188 C 53.714844 269.175781 85.175781 315.367188 130.554688 336.773438 L 130.554688 168.398438 L 152.378906 168.398438 L 152.378906 373.90625 C 144.886719 372.261719 137.554688 370.035156 130.472656 367.402344 C 69.28125 344.265625 25.546875 285.066406 25.546875 215.742188 C 25.546875 126.488281 98.1875 53.789062 187.546875 53.789062 Z M 163.664062 182.722656 C 155.34375 167.574219 150.816406 152.753906 142.578125 137.6875 C 133.601562 152.425781 124.789062 166.832031 115.894531 181.488281 C 121.414062 181.652344 126.519531 181.820312 131.707031 181.984375 L 151.96875 182.3125 C 152.050781 182.3125 152.214844 182.3125 152.296875 182.3125 C 157.15625 182.558594 158.472656 182.558594 163.664062 182.722656 Z M 163.664062 182.722656 " fill-opacity="1" fill-rule="nonzero"/></g></svg>